<svg width="1440" height="900" viewBox="0 0 1440 900" fill="none" xmlns="http://www.w3.org/2000/svg">
<path fill-rule="evenodd" clip-rule="evenodd" d="M832 284.636C832 418.49 940.51 527 1074.36 527C1135.83 527 1191.95 504.119 1234.68 466.409H1345.72L1296.64 381.402C1309.56 351.762 1316.73 319.036 1316.73 284.636C1316.73 150.783 1208.22 42.2728 1074.36 42.2728C940.51 42.2728 832 150.783 832 284.636ZM1244.02 284.636C1244.02 378.334 1168.06 454.291 1074.36 454.291C980.666 454.291 904.709 378.334 904.709 284.636C904.709 190.939 980.666 114.982 1074.36 114.982C1168.06 114.982 1244.02 190.939 1244.02 284.636Z" fill="#00838F" fill-opacity="0.35"/>
<line x1="12.1182" y1="-12.1182" x2="181.773" y2="-12.1182" transform="matrix(-1 0 0 1 1171.31 284.636)" stroke="#B0B0B0" stroke-opacity="0.5" stroke-width="24.2364" stroke-linecap="round" stroke-linejoin="round"/>
<line x1="12.1182" y1="-12.1182" x2="84.8273" y2="-12.1182" transform="matrix(-1 0 0 1 1170.91 332.746)" stroke="#B0B0B0" stroke-opacity="0.5" stroke-width="24.2364" stroke-linecap="round"/>
<path fill-rule="evenodd" clip-rule="evenodd" d="M546 626.273C546 737.985 455.439 828.545 343.727 828.545C292.429 828.545 245.59 809.449 209.933 777.977H117.26L158.22 707.032C147.436 682.295 141.455 654.982 141.455 626.273C141.455 514.561 232.015 424 343.727 424C455.439 424 546 514.561 546 626.273ZM202.136 626.273C202.136 704.471 265.529 767.864 343.727 767.864C421.926 767.864 485.318 704.471 485.318 626.273C485.318 548.074 421.926 484.682 343.727 484.682C265.529 484.682 202.136 548.074 202.136 626.273Z" fill="#00838F" fill-opacity="0.35"/>
<line x1="272.932" y1="616.159" x2="414.523" y2="616.159" stroke="#B0B0B0" stroke-opacity="0.5" stroke-width="20.2273" stroke-linecap="round" stroke-linejoin="round"/>
<line x1="272.932" y1="656.341" x2="334.114" y2="656.341" stroke="#B0B0B0" stroke-opacity="0.5" stroke-width="20.2273" stroke-linecap="round"/>
</svg>
