<svg width="172" height="78" viewBox="0 0 172 78" fill="none" xmlns="http://www.w3.org/2000/svg">
<path fill-rule="evenodd" clip-rule="evenodd" d="M2.67029e-05 33C2.67029e-05 48.464 12.5361 61 28 61C35.1011 61 41.5849 58.3565 46.5208 54H59.3492L53.6792 44.1792C55.1721 40.7549 56 36.9742 56 33C56 17.536 43.464 5 28 5C12.5361 5 2.67029e-05 17.536 2.67029e-05 33ZM47.6 33C47.6 43.8248 38.8248 52.6 28 52.6C17.1752 52.6 8.40002 43.8248 8.40002 33C8.40002 22.1752 17.1752 13.4 28 13.4C38.8248 13.4 47.6 22.1752 47.6 33Z" fill="#00A3AD"/>
<line x1="1.4" y1="-1.4" x2="21" y2="-1.4" transform="matrix(-1 0 0 1 39.2 33)" stroke="#00A3AD" stroke-width="2.8" stroke-linecap="round" stroke-linejoin="round"/>
<line x1="1.4" y1="-1.4" x2="9.8" y2="-1.4" transform="matrix(-1 0 0 1 39 38.6)" stroke="#00A3AD" stroke-width="2.8" stroke-linecap="round"/>
<path d="M87.0425 14.7C83.5225 14.7 80.4225 15.44 77.7425 16.92C75.1025 18.36 73.0625 20.36 71.6225 22.92C70.1825 25.44 69.4625 28.3 69.4625 31.5C69.4625 34.62 70.1425 37.48 71.5025 40.08C72.9025 42.68 74.9025 44.74 77.5025 46.26C80.1425 47.78 83.2225 48.54 86.7425 48.54C88.4225 48.54 90.0425 48.36 91.6025 48C93.1625 47.64 94.9025 47.08 96.8225 46.32L97.6625 45.96L95.7425 41.22L94.9025 41.58C92.1025 42.62 89.7225 43.14 87.7625 43.14C83.9225 43.14 80.9025 42.08 78.7025 39.96C76.5425 37.8 75.4625 34.96 75.4625 31.44C75.4625 29.32 75.9225 27.38 76.8425 25.62C77.7625 23.86 79.0825 22.48 80.8025 21.48C82.5625 20.44 84.6025 19.92 86.9225 19.92C88.1225 19.92 89.2625 20 90.3425 20.16C91.4225 20.28 92.7625 20.64 94.3625 21.24L95.2625 21.54L97.2425 16.92L96.2825 16.56C93.3225 15.32 90.2425 14.7 87.0425 14.7ZM113.994 29.46C115.634 29.46 116.734 29.9 117.294 30.78C117.854 31.62 118.134 32.74 118.134 34.14V48H123.894V34.92C123.894 32 123.354 29.56 122.274 27.6C121.194 25.64 118.934 24.66 115.494 24.66C113.254 24.66 110.934 25.16 108.534 26.16V15H102.774V48H108.534V30.72C110.694 29.88 112.514 29.46 113.994 29.46ZM137.947 24.6C135.947 24.6 133.387 25.12 130.267 26.16L131.167 30.12C133.287 29.32 135.247 28.92 137.047 28.92C139.167 28.92 140.587 29.28 141.307 30C142.027 30.72 142.387 32.08 142.387 34.08L137.887 34.32C134.807 34.48 132.427 35.2 130.747 36.48C129.107 37.72 128.287 39.46 128.287 41.7C128.287 43.7 129.027 45.34 130.507 46.62C131.987 47.9 133.967 48.54 136.447 48.54C139.127 48.54 141.367 47.82 143.167 46.38L143.827 48H148.387V33.84C148.387 30.88 147.607 28.6 146.047 27C144.527 25.4 141.827 24.6 137.947 24.6ZM142.627 42.9C142.427 43.02 142.067 43.22 141.547 43.5C141.027 43.74 140.487 43.92 139.927 44.04C139.367 44.16 138.687 44.22 137.887 44.22C136.687 44.22 135.747 43.96 135.067 43.44C134.387 42.92 134.047 42.2 134.047 41.28C134.047 39.44 135.547 38.44 138.547 38.28L142.627 37.98V42.9ZM169.376 43.14C167.576 43.62 166.096 43.86 164.936 43.86C162.416 43.86 161.156 42.74 161.156 40.5V29.46H169.136V24.96H161.156V18.36H155.396V24.96H151.556V29.46H155.396V40.62C155.396 43.1 155.936 45.04 157.016 46.44C158.136 47.84 160.356 48.54 163.676 48.54C164.636 48.54 165.596 48.42 166.556 48.18C167.556 47.94 168.756 47.62 170.156 47.22L169.376 43.14Z" fill="#00A3AD"/>
<path d="M77.7425 16.92L78.2214 17.7979L78.2259 17.7954L77.7425 16.92ZM71.6225 22.92L72.4908 23.4162L72.4941 23.4103L71.6225 22.92ZM71.5025 40.08L70.6163 40.5435L70.622 40.5541L71.5025 40.08ZM77.5025 46.26L76.9978 47.1233L77.0035 47.1266L77.5025 46.26ZM91.6025 48L91.3776 47.0256L91.6025 48ZM96.8225 46.32L97.1905 47.2498L97.2036 47.2447L97.2164 47.2391L96.8225 46.32ZM97.6625 45.96L98.0564 46.8791L98.9573 46.493L98.5893 45.5846L97.6625 45.96ZM95.7425 41.22L96.6693 40.8446L96.2863 39.899L95.3486 40.3009L95.7425 41.22ZM94.9025 41.58L95.2507 42.5174L95.2738 42.5089L95.2964 42.4991L94.9025 41.58ZM78.7025 39.96L77.9954 40.6671L78.0019 40.6737L78.0086 40.6801L78.7025 39.96ZM80.8025 21.48L81.3051 22.3445L81.3112 22.3409L80.8025 21.48ZM90.3425 20.16L90.196 21.1492L90.214 21.1519L90.2321 21.1539L90.3425 20.16ZM94.3625 21.24L94.0114 22.1763L94.0287 22.1828L94.0463 22.1887L94.3625 21.24ZM95.2625 21.54L94.9463 22.4887L95.8192 22.7797L96.1816 21.9339L95.2625 21.54ZM97.2425 16.92L98.1616 17.3139L98.5742 16.3514L97.5936 15.9837L97.2425 16.92ZM96.2825 16.56L95.8961 17.4823L95.9136 17.4897L95.9314 17.4963L96.2825 16.56ZM87.0425 13.7C83.379 13.7 80.108 14.4713 77.2591 16.0446L78.2259 17.7954C80.737 16.4087 83.666 15.7 87.0425 15.7V13.7ZM77.2636 16.0421C74.4631 17.5697 72.2852 19.7022 70.7509 22.4297L72.4941 23.4103C73.8398 21.0178 75.7419 19.1503 78.2214 17.7979L77.2636 16.0421ZM70.7543 22.4239C69.2193 25.1101 68.4625 28.1443 68.4625 31.5H70.4625C70.4625 28.4557 71.1457 25.7699 72.4907 23.4161L70.7543 22.4239ZM68.4625 31.5C68.4625 34.7709 69.1769 37.7914 70.6164 40.5435L72.3886 39.6165C71.1081 37.1686 70.4625 34.4691 70.4625 31.5H68.4625ZM70.622 40.5541C72.111 43.3193 74.2425 45.5125 76.9978 47.1233L78.0072 45.3967C75.5625 43.9675 73.694 42.0407 72.383 39.6059L70.622 40.5541ZM77.0035 47.1266C79.8175 48.7468 83.0749 49.54 86.7425 49.54V47.54C83.3701 47.54 80.4675 46.8132 78.0015 45.3934L77.0035 47.1266ZM86.7425 49.54C88.4945 49.54 90.1901 49.3522 91.8274 48.9744L91.3776 47.0256C89.8949 47.3678 88.3505 47.54 86.7425 47.54V49.54ZM91.8274 48.9744C93.4478 48.6005 95.2366 48.0233 97.1905 47.2498L96.4545 45.3902C94.5684 46.1367 92.8772 46.6795 91.3776 47.0256L91.8274 48.9744ZM97.2164 47.2391L98.0564 46.8791L97.2686 45.0409L96.4286 45.4009L97.2164 47.2391ZM98.5893 45.5846L96.6693 40.8446L94.8156 41.5954L96.7356 46.3354L98.5893 45.5846ZM95.3486 40.3009L94.5086 40.6609L95.2964 42.4991L96.1364 42.1391L95.3486 40.3009ZM94.5543 40.6426C91.8135 41.6606 89.5584 42.14 87.7625 42.14V44.14C89.8866 44.14 92.3915 43.5794 95.2507 42.5174L94.5543 40.6426ZM87.7625 42.14C84.1116 42.14 81.3652 41.1372 79.3964 39.2399L78.0086 40.6801C80.4397 43.0228 83.7334 44.14 87.7625 44.14V42.14ZM79.4096 39.2529C77.466 37.3093 76.4625 34.7386 76.4625 31.44H74.4625C74.4625 35.1814 75.619 38.2907 77.9954 40.6671L79.4096 39.2529ZM76.4625 31.44C76.4625 29.4701 76.8885 27.6907 77.7287 26.0833L75.9563 25.1567C74.9565 27.0693 74.4625 29.1699 74.4625 31.44H76.4625ZM77.7287 26.0833C78.5611 24.4909 79.748 23.2498 81.3051 22.3445L80.2999 20.6155C78.417 21.7102 76.9639 23.2291 75.9563 25.1567L77.7287 26.0833ZM81.3112 22.3409C82.8973 21.4037 84.7568 20.92 86.9225 20.92V18.92C84.4482 18.92 82.2277 19.4763 80.2938 20.6191L81.3112 22.3409ZM86.9225 20.92C88.0782 20.92 89.169 20.9971 90.196 21.1492L90.489 19.1708C89.356 19.0029 88.1668 18.92 86.9225 18.92V20.92ZM90.2321 21.1539C91.1968 21.2611 92.4501 21.5909 94.0114 22.1763L94.7136 20.3037C93.0749 19.6891 91.6482 19.2989 90.4529 19.1661L90.2321 21.1539ZM94.0463 22.1887L94.9463 22.4887L95.5787 20.5913L94.6787 20.2913L94.0463 22.1887ZM96.1816 21.9339L98.1616 17.3139L96.3234 16.5261L94.3434 21.1461L96.1816 21.9339ZM97.5936 15.9837L96.6336 15.6237L95.9314 17.4963L96.8914 17.8563L97.5936 15.9837ZM96.6689 15.6377C93.5869 14.3466 90.3756 13.7 87.0425 13.7V15.7C90.1094 15.7 93.0581 16.2934 95.8961 17.4823L96.6689 15.6377ZM117.294 30.78L116.45 31.3169L116.456 31.3258L116.462 31.3347L117.294 30.78ZM118.134 48H117.134V49H118.134V48ZM123.894 48V49H124.894V48H123.894ZM122.274 27.6L123.15 27.1174V27.1174L122.274 27.6ZM108.534 26.16H107.534V27.66L108.918 27.0831L108.534 26.16ZM108.534 15H109.534V14H108.534V15ZM102.774 15V14H101.774V15H102.774ZM102.774 48H101.774V49H102.774V48ZM108.534 48V49H109.534V48H108.534ZM108.534 30.72L108.171 29.788L107.534 30.0359V30.72H108.534ZM113.994 30.46C115.497 30.46 116.162 30.8636 116.45 31.3169L118.137 30.2431C117.306 28.9364 115.771 28.46 113.994 28.46V30.46ZM116.462 31.3347C116.877 31.9582 117.134 32.8636 117.134 34.14H119.134C119.134 32.6164 118.83 31.2818 118.126 30.2253L116.462 31.3347ZM117.134 34.14V48H119.134V34.14H117.134ZM118.134 49H123.894V47H118.134V49ZM124.894 48V34.92H122.894V48H124.894ZM124.894 34.92C124.894 31.8811 124.332 29.2635 123.15 27.1174L121.398 28.0826C122.375 29.8565 122.894 32.1189 122.894 34.92H124.894ZM123.15 27.1174C121.811 24.6877 119.086 23.66 115.494 23.66V25.66C118.782 25.66 120.577 26.5924 121.398 28.0826L123.15 27.1174ZM115.494 23.66C113.102 23.66 110.652 24.1942 108.149 25.2369L108.918 27.0831C111.216 26.1258 113.405 25.66 115.494 25.66V23.66ZM109.534 26.16V15H107.534V26.16H109.534ZM108.534 14H102.774V16H108.534V14ZM101.774 15V48H103.774V15H101.774ZM102.774 49H108.534V47H102.774V49ZM109.534 48V30.72H107.534V48H109.534ZM108.896 31.652C110.999 30.8344 112.688 30.46 113.994 30.46V28.46C112.34 28.46 110.389 28.9256 108.171 29.788L108.896 31.652ZM130.267 26.16L129.951 25.2113L129.091 25.4979L129.292 26.3816L130.267 26.16ZM131.167 30.12L130.192 30.3416L130.446 31.4608L131.52 31.0556L131.167 30.12ZM141.307 30L142.014 29.2929V29.2929L141.307 30ZM142.387 34.08L142.44 35.0786L143.387 35.0281V34.08H142.387ZM137.887 34.32L137.939 35.3187L137.94 35.3186L137.887 34.32ZM130.747 36.48L131.35 37.2777L131.353 37.2754L130.747 36.48ZM130.507 46.62L129.853 47.3764L130.507 46.62ZM143.167 46.38L144.093 46.0027L143.588 44.7627L142.542 45.5991L143.167 46.38ZM143.827 48L142.901 48.3773L143.154 49H143.827V48ZM148.387 48V49H149.387V48H148.387ZM146.047 27L145.322 27.6888L145.331 27.6981L146.047 27ZM142.627 42.9L143.141 43.7575L143.627 43.4662V42.9H142.627ZM141.547 43.5L141.966 44.408L141.994 44.3951L142.021 44.3805L141.547 43.5ZM139.927 44.04L140.136 45.0178L139.927 44.04ZM138.547 38.28L138.6 39.2786L138.61 39.278L138.62 39.2773L138.547 38.28ZM142.627 37.98H143.627V36.9038L142.554 36.9827L142.627 37.98ZM137.947 23.6C135.793 23.6 133.116 24.1563 129.951 25.2113L130.583 27.1087C133.658 26.0837 136.101 25.6 137.947 25.6V23.6ZM129.292 26.3816L130.192 30.3416L132.142 29.8984L131.242 25.9384L129.292 26.3816ZM131.52 31.0556C133.555 30.2876 135.394 29.92 137.047 29.92V27.92C135.1 27.92 133.019 28.3524 130.814 29.1844L131.52 31.0556ZM137.047 29.92C138.057 29.92 138.853 30.0065 139.456 30.1593C140.064 30.3134 140.411 30.5185 140.6 30.7071L142.014 29.2929C141.483 28.7615 140.76 28.4266 139.948 28.2207C139.13 28.0135 138.156 27.92 137.047 27.92V29.92ZM140.6 30.7071C141.018 31.1254 141.387 32.1213 141.387 34.08H143.387C143.387 32.0387 143.036 30.3146 142.014 29.2929L140.6 30.7071ZM142.334 33.0814L137.834 33.3214L137.94 35.3186L142.44 35.0786L142.334 33.0814ZM137.835 33.3213C134.642 33.4872 132.039 34.2384 130.141 35.6846L131.353 37.2754C132.815 36.1616 134.972 35.4728 137.939 35.3187L137.835 33.3213ZM130.144 35.6823C128.229 37.1301 127.287 39.179 127.287 41.7H129.287C129.287 39.741 129.985 38.3099 131.35 37.2777L130.144 35.6823ZM127.287 41.7C127.287 43.983 128.148 45.9016 129.853 47.3764L131.161 45.8636C129.906 44.7784 129.287 43.417 129.287 41.7H127.287ZM129.853 47.3764C131.559 48.852 133.793 49.54 136.447 49.54V47.54C134.141 47.54 132.415 46.948 131.161 45.8636L129.853 47.3764ZM136.447 49.54C139.315 49.54 141.786 48.7651 143.792 47.1609L142.542 45.5991C140.947 46.8749 138.938 47.54 136.447 47.54V49.54ZM142.241 46.7573L142.901 48.3773L144.753 47.6227L144.093 46.0027L142.241 46.7573ZM143.827 49H148.387V47H143.827V49ZM149.387 48V33.84H147.387V48H149.387ZM149.387 33.84C149.387 30.7065 148.558 28.143 146.763 26.3019L145.331 27.6981C146.656 29.057 147.387 31.0535 147.387 33.84H149.387ZM146.772 26.3113C144.962 24.4061 141.908 23.6 137.947 23.6V25.6C141.746 25.6 144.092 26.3939 145.322 27.6887L146.772 26.3113ZM142.112 42.0425C141.935 42.1491 141.594 42.3391 141.073 42.6195L142.021 44.3805C142.54 44.1009 142.919 43.8909 143.141 43.7575L142.112 42.0425ZM141.128 42.592C140.675 42.8011 140.205 42.9577 139.717 43.0622L140.136 45.0178C140.769 44.8823 141.379 44.6789 141.966 44.408L141.128 42.592ZM139.717 43.0622C139.247 43.1629 138.642 43.22 137.887 43.22V45.22C138.732 45.22 139.486 45.1571 140.136 45.0178L139.717 43.0622ZM137.887 43.22C136.82 43.22 136.122 42.988 135.674 42.6456L134.459 44.2344C135.372 44.932 136.554 45.22 137.887 45.22V43.22ZM135.674 42.6456C135.262 42.3306 135.047 41.9155 135.047 41.28H133.047C133.047 42.4845 133.511 43.5094 134.459 44.2344L135.674 42.6456ZM135.047 41.28C135.047 40.686 135.262 40.292 135.727 39.9821C136.259 39.6274 137.173 39.3547 138.6 39.2786L138.494 37.2814C136.921 37.3653 135.585 37.6726 134.617 38.318C133.582 39.008 133.047 40.034 133.047 41.28H135.047ZM138.62 39.2773L142.7 38.9773L142.554 36.9827L138.474 37.2827L138.62 39.2773ZM141.627 37.98V42.9H143.627V37.98H141.627ZM169.376 43.14L170.358 42.9522L170.156 41.8969L169.118 42.1738L169.376 43.14ZM161.156 29.46V28.46H160.156V29.46H161.156ZM169.136 29.46V30.46H170.136V29.46H169.136ZM169.136 24.96H170.136V23.96H169.136V24.96ZM161.156 24.96H160.156V25.96H161.156V24.96ZM161.156 18.36H162.156V17.36H161.156V18.36ZM155.396 18.36V17.36H154.396V18.36H155.396ZM155.396 24.96V25.96H156.396V24.96H155.396ZM151.556 24.96V23.96H150.556V24.96H151.556ZM151.556 29.46H150.556V30.46H151.556V29.46ZM155.396 29.46H156.396V28.46H155.396V29.46ZM157.016 46.44L156.224 47.0508L156.229 47.0578L156.235 47.0647L157.016 46.44ZM166.556 48.18L166.322 47.2076L166.313 47.2099L166.556 48.18ZM170.156 47.22L170.43 48.1815L171.31 47.9303L171.138 47.0322L170.156 47.22ZM169.118 42.1738C167.358 42.6431 165.972 42.86 164.936 42.86V44.86C166.219 44.86 167.793 44.5969 169.633 44.1062L169.118 42.1738ZM164.936 42.86C163.803 42.86 163.14 42.6057 162.765 42.2726C162.413 41.9595 162.156 41.4333 162.156 40.5H160.156C160.156 41.8067 160.529 42.9605 161.436 43.7674C162.322 44.5543 163.549 44.86 164.936 44.86V42.86ZM162.156 40.5V29.46H160.156V40.5H162.156ZM161.156 30.46H169.136V28.46H161.156V30.46ZM170.136 29.46V24.96H168.136V29.46H170.136ZM169.136 23.96H161.156V25.96H169.136V23.96ZM162.156 24.96V18.36H160.156V24.96H162.156ZM161.156 17.36H155.396V19.36H161.156V17.36ZM154.396 18.36V24.96H156.396V18.36H154.396ZM155.396 23.96H151.556V25.96H155.396V23.96ZM150.556 24.96V29.46H152.556V24.96H150.556ZM151.556 30.46H155.396V28.46H151.556V30.46ZM154.396 29.46V40.62H156.396V29.46H154.396ZM154.396 40.62C154.396 43.234 154.964 45.4175 156.224 47.0508L157.807 45.8292C156.907 44.6625 156.396 42.966 156.396 40.62H154.396ZM156.235 47.0647C157.656 48.8417 160.293 49.54 163.676 49.54V47.54C160.418 47.54 158.615 46.8383 157.796 45.8153L156.235 47.0647ZM163.676 49.54C164.72 49.54 165.761 49.4094 166.798 49.1501L166.313 47.2099C165.43 47.4306 164.551 47.54 163.676 47.54V49.54ZM166.789 49.1524C167.807 48.908 169.022 48.584 170.43 48.1815L169.881 46.2585C168.489 46.656 167.304 46.972 166.322 47.2076L166.789 49.1524ZM171.138 47.0322L170.358 42.9522L168.393 43.3278L169.173 47.4078L171.138 47.0322Z" fill="#00A3AD"/>
</svg>
